<?xml version="1.0" encoding="utf-8"?>
<svg version="1.1" xmlns:xlink="http://www.w3.org/1999/xlink" width="28px" height="28px" xmlns="http://www.w3.org/2000/svg">
  <g transform="matrix(1 0 0 1 -132 -1902 )">
    <path d="M 146 1902  C 153.84 1902  160 1908.16  160 1916  C 160 1923.84  153.84 1930  146 1930  C 138.16 1930  132 1923.84  132 1916  C 132 1908.16  138.16 1902  146 1902  Z " fill-rule="nonzero" fill="#ffffff" stroke="none" />
    <path d="M 146 1902.5  C 153.56 1902.5  159.5 1908.44  159.5 1916  C 159.5 1923.56  153.56 1929.5  146 1929.5  C 138.44 1929.5  132.5 1923.56  132.5 1916  C 132.5 1908.44  138.44 1902.5  146 1902.5  Z " stroke-width="1" stroke="#f2f2f2" fill="none" />
  </g>
</svg>